<?xml version="1.0" encoding="UTF-8"?><svg id="Lag_1" xmlns="http://www.w3.org/2000/svg" width="3.74cm" height="4.59cm" xmlns:xlink="http://www.w3.org/1999/xlink" viewBox="0 0 105.97 129.99"><defs><style>.cls-1,.cls-2,.cls-3,.cls-4,.cls-5,.cls-6,.cls-7,.cls-8,.cls-9,.cls-10,.cls-11,.cls-12,.cls-13,.cls-14,.cls-15,.cls-16,.cls-17,.cls-18,.cls-19,.cls-20{stroke-miterlimit:10;}.cls-1,.cls-2,.cls-3,.cls-4,.cls-5,.cls-6,.cls-9,.cls-10,.cls-11,.cls-12,.cls-13,.cls-14,.cls-20{stroke-linecap:round;}.cls-1,.cls-5,.cls-15,.cls-16{stroke-width:.5px;}.cls-1,.cls-16{fill:#d388b9;stroke:#a074b1;}.cls-2,.cls-3{fill:#c661a2;}.cls-2,.cls-3,.cls-4,.cls-7,.cls-8{stroke-width:.25px;}.cls-2,.cls-15{stroke:#706f6f;}.cls-3,.cls-4,.cls-7{stroke:#878787;}.cls-4{fill:#e9c6a1;}.cls-5,.cls-6,.cls-10,.cls-11,.cls-13{stroke:#1d1d1b;}.cls-5,.cls-15{fill:#fff;}.cls-21,.cls-10{fill:#ecc7a1;}.cls-22{fill:#ee96bf;}.cls-23,.cls-6{fill:#1d1d1b;}.cls-24{fill:#513a30;}.cls-7,.cls-8,.cls-17{fill:#f6cba1;}.cls-8{stroke:#9d9d9c;}.cls-9{fill:#e479ae;stroke:#30183e;}.cls-11,.cls-12{fill:#eec8a1;}.cls-12{stroke:#251f4f;}.cls-13{fill:#ededed;}.cls-14{fill:#e6b5d5;stroke:#48225b;}.cls-25{filter:url(#drop-shadow-1);}.cls-17{stroke:#eac6a1;}.cls-18{fill:#f4994e;}.cls-18,.cls-19{stroke:#e7c5a1;}.cls-19{fill:#f8cba1;}.cls-26{opacity:.15;}.cls-20{fill:#36a9e1;stroke:#36a9e1;stroke-width:.75px;}</style><filter id="drop-shadow-1" filterUnits="userSpaceOnUse"><feOffset dx="7" dy="7"/><feGaussianBlur result="blur" stdDeviation="5"/><feFlood flood-color="#000" flood-opacity=".2"/><feComposite in2="blur" operator="in"/><feComposite in="SourceGraphic"/></filter></defs><g class="cls-25"><g><ellipse class="cls-4" cx="65.47" cy="110.37" rx="9.09" ry="16.52" transform="translate(-62.76 115.2) rotate(-61.48)"/><ellipse class="cls-4" cx="35.92" cy="110.65" rx="16.9" ry="9.19" transform="translate(-47.11 29.16) rotate(-27.55)"/><g><g><g><ellipse class="cls-8" cx="27.72" cy="84.26" rx="14.05" ry="6.32" transform="translate(-32.37 19.01) rotate(-24.43)"/><ellipse class="cls-7" cx="73.56" cy="84.24" rx="5.51" ry="13.97" transform="translate(-38.18 88.9) rotate(-51.26)"/><path class="cls-17" d="M54.04,71.53c-3.55-.18-6.54,1.31-11.02,3.4-3.91,1.82-6.28,2.92-8.54,5.43-4.46,4.94-4.69,11.14-4.66,13.24,.03,1.82,.12,8.2,4.85,12.86,5.12,5.04,12.23,4.7,16.75,4.48,4.56-.22,10.62-.52,15.25-5.04,5.92-5.79,6.54-15.59,3.16-22.75-2.52-5.34-8.21-11.22-15.79-11.6Z"/><path class="cls-19" d="M50.58,78.6c10.25-.28,25.45-5.88,30.17-20.64,4.59-14.33-3.85-27.41-5.13-29.33-7.98-11.95-20.05-13.63-22.39-13.91-2.28-.26-14.96-1.47-25.21,8.89-7.35,7.42-13.17,20.49-9.71,33.23,4.34,16.03,20.8,22.07,32.28,21.76Z"/><ellipse class="cls-14" cx="52.22" cy="63.46" rx="13.17" ry="14.55" transform="translate(-11.95 114.81) rotate(-89.22)"/><ellipse class="cls-10" cx="44.94" cy="69.11" rx="1.58" ry="1.74" transform="translate(-24.78 113.1) rotate(-89.22)"/><ellipse class="cls-11" cx="59.26" cy="69.18" rx="1.58" ry="1.74" transform="translate(-10.73 127.49) rotate(-89.22)"/><ellipse class="cls-12" cx="59.63" cy="59.26" rx="1.58" ry="1.74" transform="translate(-.44 118.07) rotate(-89.22)"/><ellipse class="cls-12" cx="59.26" cy="69.18" rx="1.58" ry="1.74" transform="translate(-10.73 127.49) rotate(-89.22)"/><ellipse class="cls-12" cx="44.94" cy="69.11" rx="1.58" ry="1.74" transform="translate(-24.78 113.1) rotate(-89.22)"/><ellipse class="cls-12" cx="45.32" cy="58.79" rx="1.58" ry="1.74" transform="translate(-14.08 103.3) rotate(-89.22)"/><ellipse class="cls-11" cx="45.32" cy="58.79" rx="1.58" ry="1.74" transform="translate(-14.08 103.3) rotate(-89.22)"/><ellipse class="cls-9" cx="52.31" cy="63.47" rx="4.02" ry="4.43" transform="translate(-11.87 114.9) rotate(-89.22)"/><ellipse class="cls-5" cx="36.89" cy="42.36" rx="8.18" ry="9.03" transform="translate(-5.97 78.67) rotate(-89.22)"/><ellipse class="cls-5" cx="67.52" cy="43.36" rx="8.18" ry="9.03" transform="translate(23.24 110.29) rotate(-89.22)"/><ellipse class="cls-20" cx="36.61" cy="43.79" rx="6.22" ry="6.86" transform="translate(-7.66 79.82) rotate(-89.24)"/><ellipse class="cls-20" cx="66.71" cy="44.86" rx="5.94" ry="6.54" transform="translate(20.97 110.96) rotate(-89.24)"/><ellipse class="cls-6" cx="34.7" cy="45.16" rx="3.73" ry="4.11" transform="translate(-10.91 79.26) rotate(-89.24)"/><ellipse class="cls-6" cx="64.94" cy="45.99" rx="3.57" ry="3.93" transform="translate(18.1 110.31) rotate(-89.24)"/><ellipse class="cls-13" cx="33.27" cy="43.63" rx="1.48" ry="1.63" transform="translate(-10.8 76.33) rotate(-89.24)"/><ellipse class="cls-13" cx="36.05" cy="46.13" rx="1.93" ry="2.13" transform="translate(-10.55 81.56) rotate(-89.24)"/><ellipse class="cls-13" cx="63.45" cy="44.63" rx="1.4" ry="1.54" transform="translate(17.99 107.48) rotate(-89.24)"/><ellipse class="cls-13" cx="66.2" cy="46.77" rx="1.68" ry="1.85" transform="translate(18.56 112.34) rotate(-89.24)"/><path class="cls-18" d="M45.89,18.72c-2.27-1.61-2.4-4.24-1.4-5.97,.17-.29,.86-1.45,2.47-2.25,1.3-.65,1.9-.42,2.61-.83,2.45-1.44-1.08-6.41,.36-7.04,1-.43,3.53,1.73,5.59,3.5,.63,.54,3.78,2.5,1.76,4.08-2.14,1.67,1.43,5.67-1.36,8.35-2.03,1.94-7.18,2.18-10.02,.16Z"/><g><path class="cls-16" d="M37.23,14.37l.59,9.29c.06,.99,1.14,1.6,2.04,1.16l9.16-4.48c1.03-.5,1.02-1.94-.02-2.45l-9.75-4.81c-.97-.48-2.09,.24-2.02,1.29Z"/><path class="cls-16" d="M53.43,17.69l9.08-5.75c.89-.57,2.09,.03,2.16,1.08l.59,9.32c.06,.98-.93,1.69-1.87,1.34l-9.67-3.57c-1.07-.4-1.24-1.81-.29-2.42Z"/><ellipse class="cls-1" cx="51.1" cy="18.81" rx="3.16" ry="4.74" transform="translate(-1.25 3.82) rotate(-4.23)"/></g><ellipse class="cls-2" cx="78.3" cy="118.95" rx="9.49" ry="12.34" transform="translate(-42.7 194.05) rotate(-88.47)"/><ellipse class="cls-3" cx="25.62" cy="117.6" rx="9.49" ry="12.34" transform="translate(-92.62 140.07) rotate(-88.47)"/><path class="cls-15" d="M47.85,111.74s1.17,.08,1.17,.08c0,0,.79,.03,1.77,.01,0,0,1.54-.04,2.92-.22,2.69-.36,5.69-4.08,8.83-6.11,1.55-1,4.08-2.21,8.08-2.52,.04-.11,.07-.21,.11-.32,2.19-4,2.56-7.22,2.59-9.08,0-.51-.03-3.42-1.26-4.02-.83-.41-2.56-.3-2.56-.3,0,0-9.37,5.69-18.56,4.85-3.91-.36-11.03-2.19-16.45-4.2-1.02-.38-3.38-1.28-4.8-.29-1.27,.89-1.22,2.91-1.15,5.59,.08,3.08,.12,4.62,.94,5.72,2.24,3.02,6.42,.24,10.61,3.19,3.06,2.15,6.37,7.52,7.74,7.61Z"/><ellipse class="cls-12" cx="45.32" cy="58.79" rx="1.58" ry="1.74" transform="translate(-14.08 103.3) rotate(-89.22)"/></g><path class="cls-24" d="M74.91,33.75c.11-.43-1.51-2.28-9.63-4.53-1.32-.37-3.16-.89-3.95,.39-.41,.67-.53,1.8-.19,2.48,.65,1.29,2.71,.5,4.99,.03,5.77-1.18,8.35,3.24,8.78,1.62Z"/><path class="cls-24" d="M29.09,32.75c-.13-.43,1.45-2.31,9.51-4.69,1.31-.39,3.13-.94,3.96,.33,.43,.66,.58,1.79,.25,2.48-.61,1.3-2.7,.54-4.99,.12-5.8-1.08-8.26,3.38-8.73,1.77Z"/><path class="cls-23" d="M25.72,35.12c-.18,.23-.29,1.5,1.47,3.84,.29,.38,.68,.92,1.35,.29,.35-.32,.76-.95,.88-1.39,.23-.82-.67-.64-1.53-.67-2.17-.08-1.5-2.93-2.17-2.07Z"/><path class="cls-23" d="M78.53,36.77c.14,.26,.14,1.52-1.64,3.55-.29,.33-.69,.8-1.24,.07-.29-.38-.61-1.06-.68-1.51-.14-.85,.66-.52,1.44-.42,1.97,.27,1.6-2.65,2.13-1.7Z"/></g><path class="cls-21" d="M19.53,35.96c-1.53-1.37-2.49-1.5-3.1-1.33-2.87,.79-3.69,9.9-.58,17.2,.51,1.18,1.03,2.13,1.43,2.79"/><path class="cls-21" d="M80.68,38.51c1.64-1.25,2.61-1.31,3.2-1.1,2.8,1,2.85,10.15-.86,17.19-.6,1.14-1.21,2.05-1.66,2.67"/></g></g><g class="cls-26"><path class="cls-22" d="M69.2,56.15c-.17,1.19-.3,2.36-.1,3.55,0,.04,.01,.07,.02,.11,.04,.19,.18,.48,.27,.65,.12,.23,.29,.46,.48,.64,.39,.36,.89,.68,1.42,.76,.35,.06,.7,.11,1.06,.09,.38-.02,.77-.08,1.14-.15,.52-.1,1.03-.32,1.5-.55s.9-.57,1.29-.91c1.05-.95,1.62-2.47,1.24-3.86-.07-.25-.19-.52-.31-.75-.13-.24-.32-.46-.49-.66-.05-.06-.11-.11-.17-.17-.2-.17-.41-.35-.65-.48-.51-.28-1.01-.41-1.59-.44-.03,0-.06,0-.09,0-.23,0-.53,.05-.76,.1-.27,.06-.52,.2-.77,.31-.29,.16-.53,.37-.7,.64-.22,.24-.37,.52-.45,.85-.1,.33-.12,.66-.04,1,.02,.33,.11,.64,.3,.93,.34,.53,.86,1,1.49,1.15l.66,.09c.45,0,.87-.12,1.26-.34l.04-.02-.6,.25c.06-.02,.12-.04,.18-.04l-.66,.09c.06,0,.12,0,.18,0l-.66-.09c.08,.01,.15,.04,.22,.07l-.6-.25c.07,.03,.14,.07,.2,.12l-.51-.39c.08,.06,.14,.13,.2,.2l-.39-.51c.05,.06,.08,.13,.11,.2l-.25-.6c.02,.06,.04,.12,.05,.18l-.09-.66c.01,.09,.01,.18,0,.27l.09-.66c-.02,.11-.04,.21-.08,.32l.25-.6c-.07,.16-.16,.3-.26,.44l.39-.51c-.14,.17-.29,.31-.46,.44l.51-.39c-.24,.18-.49,.33-.77,.45l.6-.25c-.32,.13-.64,.22-.98,.27l.66-.09c-.21,.02-.42,.04-.64,.02l.66,.09c-.07,0-.13-.02-.2-.05l.6,.25s-.06-.03-.08-.05l.51,.39s-.05-.04-.07-.06l.39,.51s-.04-.06-.06-.09l.25,.6c-.02-.05-.03-.1-.04-.16l.09,.66c-.06-.69,0-1.4,.09-2.08l-.09,.66s.01-.09,.02-.14c.1-.33,.12-.66,.04-1-.02-.33-.11-.64-.3-.93-.3-.52-.9-1.01-1.49-1.15-.64-.15-1.36-.11-1.93,.25l-.51,.39c-.31,.31-.52,.68-.64,1.1h0Z"/></g><g class="cls-26"><path class="cls-22" d="M75.47,59.63c.09-.09,.18-.17,.28-.25l-.51,.39c.44-.33,.94-.58,1.38-.91,.84-.63,1.56-1.4,1.84-2.45,.56-2.06-.88-4.1-2.92-4.53-1.78-.37-3.42,.21-4.79,1.32-1.1,.89-1.8,2.25-2.17,3.59-.35,1.26-.58,2.67-.41,3.97,.24,1.8,1.42,3.32,3.22,3.78,3.14,.8,5.91-1.57,7.17-4.25,.6-1.27,1.01-2.59,1.32-3.96,.19-.82,.2-1.63-.21-2.38-.36-.66-1.06-1.17-1.8-1.33-.86-.19-1.81-.15-2.69-.2-1.31-.07-2.56,1.2-2.5,2.5,.06,1.41,1.1,2.43,2.5,2.5,.67,.04,1.35,.06,2.02,.11l-.66-.09c.06,0,.12,.02,.18,.04l-.6-.25,.07,.05-.9-.9,.06,.09-.25-.6,.02,.11-.09-.66v.11c.02-.22,.05-.44,.08-.66-.21,1.08-.52,2.17-.94,3.19l.25-.6c-.29,.67-.63,1.3-1.07,1.88l.39-.51c-.29,.37-.61,.7-.97,.99l.51-.39c-.27,.2-.55,.37-.86,.5l.6-.25c-.23,.09-.46,.15-.7,.18l.66-.09c-.23,.02-.46,.02-.69,0l.66,.09c-.19-.03-.37-.08-.55-.15l.6,.25c-.14-.06-.26-.14-.39-.22l.51,.39c-.12-.1-.22-.2-.32-.32l.39,.51c-.09-.12-.16-.25-.23-.39l.25,.6c-.09-.21-.14-.43-.17-.66l.09,.66c-.05-.43-.02-.86,.04-1.29l-.09,.66c.11-.83,.27-1.65,.58-2.43l-.25,.6c.15-.36,.34-.7,.57-1.01l-.39,.51c.22-.28,.47-.53,.75-.76l-.51,.39c.23-.17,.46-.31,.71-.43l-.6,.25c.26-.11,.52-.19,.79-.23l-.66,.09c.23-.03,.46-.03,.7,0l-.66-.09c.19,.03,.36,.08,.53,.15l-.6-.25c.13,.06,.25,.13,.37,.22l-.51-.39c.08,.07,.15,.14,.22,.22l-.39-.51c.06,.09,.1,.17,.15,.26l-.25-.6c.03,.07,.04,.14,.05,.22l-.09-.66c0,.08,.01,.16,0,.24l.09-.66c-.02,.12-.05,.23-.09,.34l.25-.6c-.06,.12-.11,.22-.19,.32l.39-.51c-.13,.17-.28,.32-.45,.46l.51-.39c-.71,.54-1.52,.91-2.17,1.56-.93,.92-.99,2.62,0,3.54s2.54,.99,3.54,0h0Z"/></g><g class="cls-26"><path class="cls-22" d="M31.84,53.47c-1.24-.17-2.49-.35-3.73-.52-.89-.12-1.76-.11-2.57,.36s-1.32,1.19-1.65,2.06c-.21,.55-.25,1.15-.31,1.73-.07,.62-.13,1.23-.15,1.85-.04,1.23,.07,2.53,.5,3.69,.84,2.29,2.64,4.35,5.17,4.73,1.35,.2,2.67,.08,3.89-.56s2.06-1.85,2.57-3.15c.41-1.03,.63-2.15,.8-3.24,.2-1.34,.29-2.57,.08-3.92-.41-2.65-2.43-4.28-4.81-5.17-1.13-.42-2.35-.8-3.57-.64-1.67,.22-2.72,1.63-3.05,3.19-.25,1.17-.44,2.35-.62,3.53-.2,1.31-.47,2.7,.01,3.99,.54,1.44,1.69,2.55,3.24,2.84s3.15-.07,4.27-1.2c1.05-1.05,1.4-2.69,.99-4.1-.44-1.49-1.58-2.63-3.06-3.08-1.25-.38-2.78,.45-3.08,1.75s.41,2.67,1.75,3.08c.47,.14-.52-.31-.11-.04l-.3-.24c.07,.06,.13,.12,.18,.18l-.23-.3c.05,.07,.09,.15,.13,.22l-.15-.36c.03,.08,.05,.16,.07,.25-.22-.33-.02-.58-.04-.22-.02,.33,.16-.68,.03-.23s.3-.54,.04-.14c.27-.32,.31-.39,.14-.21,.34-.25,.41-.3,.19-.16-.42,.26,.58-.2,.11-.06-.44,.13,.49,.04,.2-.02-.08-.02-.26-.02-.34,0l.4,.05c-.09-.02-.17-.04-.26-.07l.35,.15c-.08-.04-.15-.08-.23-.13l.3,.23c-.18-.18-.13-.11,.14,.21-.33-.51,.17,.51-.03-.05l-.04-.17c.05,.37,.06,.42,.05,.13,.02-.18,.02-.37,.03-.54,.03-.64-.1,.63,0-.09,.07-.43,.13-.86,.2-1.29,.14-.86,.29-1.72,.47-2.57,.03-.15,.07-.29,.11-.44,.04-.19,.21-.31-.08,.18-.27,.46-.78,.64-1.29,.67,.55-.04-.5-.18,.04,0,.33,.11,.68,.19,1.02,.3,.11,.04,.23,.07,.34,.11,.11,.04,.22,.08,.33,.12,.26,.1,.22,.08-.11-.05,.3,.04,.65,.34,.91,.49,.48,.28-.36-.38,.02,.03-.01-.01,.24,.22,.23,.24l-.18-.24c.07,.09,.13,.19,.19,.29l.08,.15c.12,.25,.1,.2-.05-.13,.04,0,.13,.44,.14,.49,.03,.11,.05,.22,.06,.34-.05-.38-.06-.43-.03-.15,0,.29,.02,.58,0,.87,0,.17-.02,.35-.04,.52,0,.1-.06,.68,0,.11-.07,.83-.3,1.7-.54,2.5-.05,.17-.11,.33-.16,.5-.17,.55,.29-.44-.02,.04l-.08,.15c-.15,.23-.12,.2,.09-.08-.01,.06-.21,.23-.24,.26-.36,.39,.47-.3,.02-.03s.55-.13,.04,0c-.08,.02-.4,.06-.45,.11,.41-.05,.47-.06,.2-.04-.1,0-.21,0-.31,0-.33,.01,0-.15,.19,.04-.06-.06-.38-.08-.46-.11l-.15-.05c-.25-.09-.2-.07,.16,.07,0-.02-.39-.22-.42-.24-.49-.28,.36,.37-.03-.03-.07-.08-.16-.17-.24-.24-.41-.37,.26,.45-.03-.02-.12-.19-.23-.39-.34-.58-.29-.49,.16,.52-.02-.02-.07-.21-.14-.42-.2-.64-.03-.11-.05-.22-.07-.33-.05-.29-.05-.29,0,.02-.02-.14-.03-.29-.03-.43-.05-.95,.05-1.89,.14-2.83,.07-.72-.16,.55,0,.01,.02-.1,.05-.19,.08-.28-.06,.24-.18,.45-.37,.61l-.29,.22c-.85,.15-1.04,.22-.59,.21,.57,.18-.54-.08,.13,.01,.99,.14,1.98,.28,2.97,.42,.7,.1,1.29,.12,1.93-.25,.52-.3,1.01-.9,1.15-1.49,.27-1.18-.36-2.88-1.75-3.08h0Z"/></g><g class="cls-26"><path class="cls-22" d="M32.83,53.62c-2.14-1.27-4.49-1.97-6.95-2.25-.49-.06-.99-.11-1.48-.07-1.21,.1-2.26,.65-2.86,1.74-.68,1.24-.58,2.93-.1,4.22s1.21,2.42,2.19,3.39c.84,.82,1.81,1.52,2.79,2.16,1.32,.86,2.77,1.73,4.4,1.16s2.62-2.22,2.74-3.94c.09-1.41-.52-2.74-1.4-3.8-.95-1.15-2.34-1.69-3.78-1.84-.6-.06-1.36,.32-1.77,.73-.43,.43-.76,1.15-.73,1.77s.24,1.32,.73,1.77c.52,.47,1.07,.66,1.77,.73h.11c-.22-.02-.44-.05-.66-.08,.24,.04,.47,.1,.7,.19l-.6-.25c.25,.11,.48,.25,.7,.41l-.51-.39c.21,.17,.4,.36,.57,.58l-.39-.51c.16,.22,.29,.45,.4,.7l-.25-.6c.09,.22,.15,.43,.19,.67l-.09-.66c.03,.23,.03,.45,0,.68l.09-.66c-.03,.2-.08,.39-.15,.57l.25-.6c-.08,.18-.17,.34-.29,.5l.39-.51c-.08,.09-.16,.16-.25,.24l.51-.39c-.06,.05-.13,.09-.2,.12l.6-.25c-.13,.05-.23,.07-.36,.09l.66-.09c-.09,0-.18,0-.27-.01l.66,.09c-.14-.03-.27-.07-.4-.12l.6,.25c-.99-.45-1.94-1.16-2.8-1.83l.51,.39c-.61-.48-1.17-1-1.64-1.61l.39,.51c-.29-.39-.54-.8-.74-1.24l.25,.6c-.17-.4-.29-.8-.35-1.23l.09,.66c-.03-.29-.04-.58-.01-.87l-.09,.66c.02-.15,.05-.29,.11-.43l-.25,.6c.03-.07,.06-.13,.11-.19l-.39,.51c.04-.06,.1-.11,.16-.15l-.51,.39c.06-.05,.13-.08,.21-.11l-.6,.25c.08-.03,.15-.04,.23-.06l-.66,.09c.58-.06,1.18,.03,1.76,.1l-.66-.09c1.26,.18,2.48,.51,3.66,1l-.6-.25c.6,.26,1.18,.55,1.74,.88,1.13,.67,2.79,.29,3.42-.9s.31-2.71-.9-3.42h0Z"/></g><g class="cls-26"><path class="cls-22" d="M77.56,52.04c-1.73-.36-3.58,.16-4.77,1.52-1,1.14-1.48,2.52-2,3.92-.58,1.55-1.29,3.2-.29,4.77s2.93,1.99,4.66,1.64c2.67-.55,4.37-3.08,5.2-5.49,.97-2.83,.3-6.15-2.35-7.81-.74-.46-1.65-.73-2.52-.73-1.36,0-2.46,.76-3.16,1.88-.79,1.26-1.5,2.58-2.25,3.87-.66,1.13-.3,2.79,.9,3.42s2.72,.31,3.42-.9c.5-.86,1-1.72,1.5-2.58,.24-.41,.47-.83,.72-1.23,.07-.11,.27-.29,.01-.05-.18,.17-.32,.34-.56,.45-.09,.04-.78,.14-.5,.14,.29,0-.59-.16-.19-.02,.06,.02,.2,.04,.25,.09-.01,0-.56-.31-.24-.08,.03,.02,.22,.13,.22,.14-.02,.03-.49-.45-.2-.15,.02,.03,.37,.36,.35,.37-.04,.03-.36-.56-.17-.19,.05,.09,.11,.18,.16,.28,.26,.5-.18-.54,0,0,.03,.09,.13,.67,.08,.26s0,.2,0,.31-.01,.21-.01,.32c-.01,.54,.13-.55,0-.03-.11,.42-.22,.84-.37,1.25-.07,.19-.22,.31,.08-.18-.04,.07-.07,.16-.11,.23-.09,.18-.18,.35-.28,.52-.08,.13-.16,.26-.25,.39-.05,.07-.11,.14-.15,.21,.26-.49,.28-.35,.15-.2-.12,.13-.23,.26-.36,.38-.06,.06-.13,.11-.19,.17-.34,.31,.5-.3,.1-.08-.03,.02-.45,.24-.45,.25,0-.04,.63-.21,.24-.11-.08,.02-.16,.05-.25,.07-.06,.02-.13,.03-.19,.04-.3,.07,.59-.01,.29-.05-.08,0-.16,0-.24,0-.29,.01,.64,.14,.25,.02-.36-.11,.27,.13,.27,.13-.32-.16,.22,.19,.23,.2-.27-.23,.18,.24,.19,.25,.14,.2,.2,.49,.22,.73,.03,.52-.09,.44-.02,.22,.03-.1,.06-.2,.09-.29,.09-.26,.19-.52,.29-.78,.18-.47,.36-.95,.53-1.42,.04-.1,.07-.19,.11-.29,.03-.09,.21-.51,.05-.13-.15,.36-.01,.04,.03-.05,.06-.12,.11-.23,.18-.34,.05-.09,.11-.17,.16-.26,.12-.17,.11-.17-.02,0-.14,.17-.14,.17,0,.01,.05-.05,.1-.1,.15-.15,.18-.22-.48,.3-.12,.08,0,0,.23-.12,.25-.14-.36,.14-.45,.18-.27,.11,.07-.02,.13-.05,.2-.06,.31-.1,0,.15-.25,.02h.14c.27,.01,.19,0-.25-.04,1.28,.27,2.76-.37,3.08-1.75,.29-1.25-.38-2.79-1.75-3.08h0Z"/></g><g class="cls-26"><path class="cls-22" d="M68.23,54.04l-.05,.04,.51-.39c-.06,.04-.11,.07-.17,.09l.6-.25c-.06,.02-.12,.04-.19,.05l.66-.09s-.09,0-.13,0l.66,.09h-.06c.61,.79,1.22,1.6,1.84,2.4-.04-.51-.08-1.03-.12-1.54-.05-.64-.24-1.31-.73-1.77l-.51-.39c-.29-.18-.6-.28-.93-.3-.53-.07-1.13,0-1.59,.3-.57,.37-.93,.85-1.15,1.49-.31,.91-.2,1.97,.06,2.88,.16,.55,.39,1.09,.48,1.67l-.09-.66c.02,.17,.03,.33,0,.5l.09-.66c-.02,.13-.05,.25-.1,.38l.25-.6c-.04,.09-.09,.18-.15,.27l.39-.51-.03,.04c-.24,.23-.42,.49-.52,.8-.16,.3-.23,.62-.22,.96,0,.61,.27,1.35,.73,1.77s1.1,.76,1.77,.73c.61-.03,1.37-.22,1.77-.73,.17-.22,.36-.42,.5-.66s.23-.5,.33-.75c.09-.23,.11-.46,.15-.71,.08-.63,.03-1.22-.12-1.84s-.44-1.26-.54-1.93l.09,.66c-.03-.2-.03-.39-.01-.59l-.09,.66c.02-.12,.04-.24,.09-.36l-4.91-.66c.04,.51,.08,1.03,.12,1.54l.09,.66c.08,.33,.23,.61,.45,.85,.3,.39,.79,.82,1.3,.9,.29,.04,.57,.11,.86,.1,.25,0,.54-.05,.79-.11,.22-.06,.52-.19,.72-.3,.24-.14,.45-.32,.66-.5,.46-.4,.73-1.17,.73-1.77s-.27-1.35-.73-1.77-1.1-.76-1.77-.73l-.66,.09c-.42,.12-.79,.33-1.1,.64h0Z"/></g><g class="cls-26"><path class="cls-22" d="M72.07,56.84c.07-.07,.14-.13,.22-.19l-.51,.39c.17-.13,.35-.24,.55-.32l-.6,.25c.21-.09,.44-.15,.67-.18l-.66,.09c.07,0,.14-.02,.21-.02,.34,.01,.67-.06,.96-.22,.31-.1,.58-.27,.8-.52,.24-.23,.42-.49,.52-.8,.16-.3,.23-.62,.22-.96l-.09-.66c-.12-.42-.33-.79-.64-1.1l-.51-.39c-.39-.23-.81-.34-1.26-.34-.29,.01-.59,.07-.88,.11-.08,.01-.16,.02-.24,.04-.36,.08-.7,.25-1.03,.39-.14,.06-.28,.13-.41,.22-.24,.16-.46,.34-.68,.52-.06,.05-.13,.11-.19,.17-.24,.23-.42,.49-.52,.8-.16,.3-.23,.62-.22,.96-.01,.34,.06,.67,.22,.96,.1,.31,.27,.58,.52,.8l.51,.39c.39,.23,.81,.34,1.26,.34l.66-.09c.42-.12,.79-.33,1.1-.64h0Z"/></g><g class="cls-26"><path class="cls-22" d="M72.16,63.19c3.22,0,3.22-5,0-5s-3.22,5,0,5h0Z"/></g><g class="cls-26"><path class="cls-22" d="M73.24,58.52c3.22,0,3.22-5,0-5s-3.22,5,0,5h0Z"/></g><g class="cls-26"><path class="cls-22" d="M72.81,58.59c.06,.02,.13,.04,.2,.05,.27,.05,.56,.11,.84,.1,.04,0,.07,0,.11,0,.24-.02,.49-.06,.74-.1,.07-.01,.14-.03,.21-.06,.22-.08,.45-.18,.66-.28,.03-.02,.06-.03,.1-.05,.23-.14,.45-.32,.65-.49,.05-.04,.1-.09,.14-.14,.15-.18,.3-.37,.43-.56,.02-.03,.04-.07,.06-.1,.23-.39,.34-.81,.34-1.26,0-.45-.12-.87-.34-1.26-.22-.38-.52-.67-.9-.9-.39-.23-.81-.34-1.26-.34-.09,0-.18,0-.27,0-.31,.03-.62,.06-.92,.13-.08,.02-.16,.05-.24,.08-.24,.1-.58,.21-.82,.37-.52,.35-.89,.69-1.23,1.23s-.41,1.04-.47,1.65c-.02,.18,.02,.36,.05,.54,.02,.18,.03,.37,.1,.55,.08,.21,.19,.55,.35,.77s.31,.48,.53,.65c.09,.08,.2,.16,.29,.22s.19,.16,.29,.22c.03,.02,.07,.04,.1,.06,.22,.11,.45,.22,.68,.28,.01,0,.03,0,.04,.01,.22,.05,.48,.07,.71,.1,.28,.03,.64-.05,.86-.09,.08-.01,.15-.03,.22-.06,.16-.06,.49-.18,.7-.3s.48-.35,.6-.45c.21-.17,.41-.46,.54-.66,.16-.23,.27-.51,.34-.78,.15-.61,.11-.92,0-1.53-.08-.33-.23-.61-.45-.85-.18-.27-.41-.49-.7-.64-.29-.18-.6-.28-.93-.3-.33-.07-.66-.06-1,.04l-.6,.25c-.38,.22-.67,.52-.9,.9l-.25,.6c-.12,.44-.12,.89,0,1.33,0,.01,0,.03,0,.04l-.09-.66s0,.08,0,.12l.09-.66s-.02,.08-.03,.12l.25-.6s-.04,.08-.07,.12l.39-.51c-.04,.05-.08,.1-.14,.14l.51-.39c-.06,.05-.12,.08-.19,.11l.6-.25c-.07,.03-.14,.05-.22,.06l.66-.09c-.07,0-.13,0-.2,0l.66,.09c-.05,0-.1-.02-.15-.04l.6,.25c-.06-.02-.11-.05-.16-.09l.51,.39c-.05-.04-.1-.09-.14-.14l.39,.51c-.05-.06-.08-.12-.11-.19l.25,.6c-.03-.08-.05-.16-.06-.24l.09,.66c0-.08,0-.16,0-.25l-.09,.66c.01-.08,.03-.15,.06-.22l-.25,.6c.03-.07,.07-.14,.12-.2l-.39,.51c.06-.07,.13-.14,.2-.2l-.51,.39c.09-.07,.19-.12,.29-.17l-.6,.25c.13-.06,.27-.09,.41-.11l-.66,.09c.12-.02,.23-.02,.35-.01l-2.16-3.76c-.03,.06-.06,.11-.1,.16l.39-.51c-.05,.06-.1,.12-.16,.16l.51-.39c-.08,.06-.16,.11-.25,.14l.6-.25c-.1,.04-.2,.07-.3,.08l.66-.09c-.09,0-.18,.01-.26,0l.66,.09c-.08-.01-.16-.03-.23-.06-.33-.1-.66-.12-1-.04-.33,.02-.64,.11-.93,.3-.29,.16-.53,.37-.7,.64-.22,.24-.37,.52-.45,.85l-.09,.66c0,.45,.12,.87,.34,1.26l.39,.51c.31,.31,.68,.52,1.1,.64h0Z"/></g><g class="cls-26"><path class="cls-22" d="M26.7,56.8c-.16,.49-.27,1.02-.28,1.54,0,.17,.03,.35,.06,.52,.02,.15,.03,.33,.08,.48,.09,.3,.21,.62,.39,.88,.14,.21,.31,.43,.48,.62,.1,.11,.24,.2,.36,.29,.11,.09,.24,.2,.37,.27,.11,.06,.26,.11,.36,.16,.11,.05,.26,.13,.4,.16,.57,.15,1,.13,1.56,.02,.05-.01,.1-.02,.15-.04,.19-.07,.45-.17,.63-.27,.03-.01,.05-.03,.08-.05,.46-.31,.76-.58,1.06-1.06,.13-.21,.23-.51,.3-.69,.06-.15,.06-.3,.08-.47,.02-.12,.05-.26,.05-.39,0-.17-.06-.53-.09-.69-.04-.24-.2-.56-.28-.7,0-.02-.02-.03-.03-.05-.21-.36-.37-.5-.66-.73l-.25-.2c-.21-.09-.42-.18-.63-.26-.03-.01-.06-.02-.1-.03-.1-.03-.2-.06-.3-.07-.32-.05-.66-.11-.99-.12s-.66,.06-.95,.11c-.11,.02-.22,.04-.33,.07-.31,.09-.62,.23-.91,.37-.11,.05-.22,.11-.32,.18-.25,.18-.52,.37-.75,.59-.04,.04-.08,.09-.12,.13-.17,.2-.34,.42-.49,.64-.18,.29-.28,.6-.3,.93-.07,.33-.06,.66,.04,1l.25,.6c.22,.38,.52,.67,.9,.9,.21,.11,.45,.2,.67,.28,.03,.01,.07,.02,.1,.03s.07,.01,.1,.02c.25,.04,.51,.09,.75,.1,.28,.01,.56-.05,.83-.1,.08-.01,.15-.03,.22-.05,.23-.08,.45-.18,.67-.28,.03-.01,.07-.03,.1-.05,.25-.13,.46-.33,.67-.5,.05-.04,.11-.09,.15-.14,.15-.17,.29-.37,.43-.55,.02-.03,.05-.06,.06-.1,.14-.24,.24-.5,.32-.75,.01-.03,.02-.06,.02-.1,.04-.17,.07-.51,.09-.68,0-.02,0-.05,0-.07,.03-.58-.16-1.1-.41-1.61-.03-.06-.07-.12-.11-.17-.16-.21-.31-.45-.51-.63-.1-.09-.22-.17-.32-.25s-.21-.17-.33-.25c-.15-.1-.33-.16-.49-.22-.17-.07-.33-.16-.52-.19-.24-.05-.51-.08-.75-.1-.04,0-.08,0-.12,0s-.08,0-.12,0c-.25,.02-.51,.05-.75,.11-.04,0-.08,.02-.11,.04-.23,.08-.47,.18-.69,.3-.29,.16-.53,.37-.7,.64-.22,.24-.37,.52-.45,.85-.1,.33-.12,.66-.04,1,.02,.33,.11,.64,.3,.93l.39,.51c.31,.31,.68,.52,1.1,.64l.66,.09c.45,0,.87-.12,1.26-.34,.03-.01,.05-.03,.08-.04l-.6,.25c.07-.03,.13-.04,.2-.06l-.66,.09c.09-.01,.18-.01,.27,0l-.66-.09c.1,.01,.2,.04,.29,.08l-.6-.25c.09,.04,.18,.09,.26,.15l-.51-.39c.07,.05,.13,.11,.19,.18l-.39-.51c.05,.06,.09,.13,.12,.2l-.25-.6c.03,.06,.04,.12,.05,.19l-.09-.66c0,.07,0,.13,0,.2l.09-.66c-.01,.06-.03,.11-.05,.17l.25-.6c-.03,.07-.07,.14-.12,.2l.39-.51c-.06,.07-.12,.13-.19,.19l.51-.39c-.08,.06-.17,.11-.26,.15l.6-.25c-.1,.04-.19,.06-.29,.08l.66-.09c-.08,0-.16,0-.24,0l.66,.09c-.08-.01-.16-.03-.23-.06l.6,.25s-.04-.02-.06-.03l.9,3.42s.05-.07,.08-.11l-.39,.51c.1-.12,.21-.23,.33-.32l-.51,.39c.13-.1,.28-.18,.43-.25l-.6,.25c.19-.08,.38-.13,.59-.16l-.66,.09c.18-.02,.36-.02,.54,0l-.66-.09c.17,.02,.33,.07,.49,.13l-1.49-1.15s.03,.05,.05,.07l-.25-.6s.02,.07,.03,.11l-.09-.66s0,.05,0,.08l.09-.66s-.02,.09-.04,.13l.25-.6s-.05,.09-.08,.13l.39-.51s-.07,.07-.11,.11l.51-.39s-.08,.06-.13,.08l.6-.25s-.1,.03-.15,.04l.66-.09c-.06,0-.11,0-.16,0l.66,.09c-.06-.01-.11-.03-.17-.05l.6,.25c-.06-.03-.12-.06-.18-.11l.51,.39c-.05-.04-.1-.09-.15-.15l.39,.51c-.06-.08-.1-.15-.14-.24l.25,.6c-.03-.08-.05-.16-.07-.25l.09,.66c-.02-.14-.01-.28,0-.42l-.09,.66c.03-.22,.1-.43,.17-.64,.1-.33,.12-.66,.04-1-.02-.33-.11-.64-.3-.93-.16-.29-.37-.53-.64-.7-.24-.22-.52-.37-.85-.45l-.66-.09c-.45,0-.87,.12-1.26,.34l-.51,.39c-.31,.31-.52,.68-.64,1.1h0Z"/></g><g class="cls-26"><path class="cls-22" d="M74.06,55.96s.02,.01,.03,.02c.16,.13,.36,.28,.52,.4,.02,.01,.03,.02,.05,.03,.03,.02,.07,.04,.1,.06,.11,.05,.24,.1,.35,.15s.23,.1,.35,.15c.04,.01,.08,.02,.12,.03,.02,0,.04,0,.05,.01,.23,.04,.48,.07,.71,.1,.04,0,.08,0,.12,0,.15,0,.31-.03,.45-.05s.31-.03,.45-.07c.33-.08,.61-.23,.85-.45,.27-.18,.49-.41,.64-.7,.18-.29,.28-.6,.3-.93,.07-.33,.06-.66-.04-1l-.25-.6c-.22-.38-.52-.67-.9-.9l-.6-.25c-.44-.12-.89-.12-1.33,0-.04,.01-.08,.02-.12,.02l.66-.09c-.09,.01-.17,.01-.26,0l.66,.09c-.09-.01-.17-.03-.25-.07l.6,.25c-.07-.03-.14-.07-.21-.12l.51,.39s-.02-.02-.03-.03c-.23-.24-.49-.42-.8-.52-.3-.16-.62-.23-.96-.22-.34-.01-.67,.06-.96,.22-.31,.1-.58,.27-.8,.52l-.39,.51c-.23,.39-.34,.81-.34,1.26l.09,.66c.12,.42,.33,.79,.64,1.1h0Z"/></g><g class="cls-26"><path class="cls-22" d="M25.7,54.82c-.29,.36-.6,.73-.83,1.14s-.42,.85-.58,1.29c-.26,.68-.38,1.45-.4,2.18,0,.44,.05,.91,.16,1.34,.17,.65,.49,1.17,.91,1.68,.53,.64,1.4,1.11,2.22,1.25,.27,.04,.63,.11,.93,.11s.64-.06,.93-.1c.45-.07,.85-.25,1.26-.44,.63-.3,1.22-.78,1.66-1.33,.58-.71,1.1-1.49,1.3-2.4,.23-1.05,.18-2.25-.43-3.17-.56-.85-1.43-1.54-2.45-1.75-1.23-.26-2.57-.02-3.45,.94-.55,.59-.8,1.3-.69,2.1,.02,.33,.11,.64,.3,.93,.22,.38,.52,.67,.9,.9,.04,.03,.08,.06,.12,.09l-.51-.39c.26,.21,.49,.44,.7,.7l-.39-.51c.08,.1,.15,.2,.22,.31,.35,.54,.86,.97,1.49,1.15,.6,.16,1.4,.09,1.93-.25s1-.86,1.15-1.49,.11-1.36-.25-1.93c-.25-.39-.54-.77-.86-1.11s-.71-.62-1.08-.9l.51,3.93s.07-.07,.11-.11l-.51,.39c.07-.05,.14-.09,.22-.13l-.6,.25c.08-.03,.16-.05,.25-.07l-.66,.09c.13-.01,.25-.01,.38,0l-.66-.09c.13,.02,.25,.06,.37,.11l-.6-.25c.12,.05,.23,.12,.34,.19l-.51-.39c.09,.07,.16,.14,.23,.23l-.39-.51c.07,.09,.12,.19,.17,.29l-.25-.6c.04,.12,.07,.23,.1,.35l-.09-.66c.02,.17,.02,.34,0,.51l.09-.66c-.03,.22-.1,.44-.18,.65l.25-.6c-.12,.28-.28,.53-.46,.78l.39-.51c-.19,.24-.41,.46-.65,.66l.51-.39c-.19,.14-.39,.27-.62,.36l.6-.25c-.19,.08-.39,.13-.6,.16l.66-.09c-.18,.02-.36,.02-.53,0l.66,.09c-.18-.03-.34-.07-.51-.14l.6,.25c-.12-.05-.23-.12-.33-.19l.51,.39c-.1-.08-.19-.17-.28-.28l.39,.51c-.07-.1-.13-.2-.18-.31l.25,.6c-.06-.16-.1-.31-.13-.48l.09,.66c-.04-.32-.03-.63,.01-.95l-.09,.66c.06-.41,.17-.8,.32-1.17l-.25,.6c.16-.38,.37-.73,.62-1.06l-.39,.51s.06-.08,.1-.12c.24-.23,.42-.49,.52-.8,.16-.3,.23-.62,.22-.96,0-.61-.27-1.35-.73-1.77s-1.1-.76-1.77-.73c-.62,.03-1.36,.23-1.77,.73h0Z"/></g></g></svg>