<?xml version="1.0" encoding="UTF-8"?><svg id="Lag_1" xmlns="http://www.w3.org/2000/svg" viewBox="0 0 453.86 255.12"><defs><style>.cls-1{fill:#80b2e1;}</style></defs><path class="cls-1" d="M160.76,146.33c-16.77,0-30.36-6.4-30.36-14.3v62.7h60.73v-62.7c0,7.9-13.59,14.3-30.36,14.3Z"/><path class="cls-1" d="M228.27,185.57c-16.77,0-30.36-6.4-30.36-14.3v62.7h60.73v-62.7c0,7.9-13.59,14.3-30.36,14.3Z"/><path class="cls-1" d="M295.78,146.33c-16.77,0-30.36-6.4-30.36-14.3v62.7h60.73v-62.7c0,7.9-13.59,14.3-30.36,14.3Z"/><path class="cls-1" d="M295.78,224.83c-16.77,0-30.36-6.4-30.36-14.3v44.59h60.73v-44.59c0,7.9-13.59,14.3-30.36,14.3Z"/><g><path class="cls-1" d="M130.4,210.52v.83c0-.28,.02-.56,.05-.83h-.05Z"/><path class="cls-1" d="M160.76,225.66c-16.77,0-30.36-6.4-30.36-14.3v43.76h60.73v-43.76c0,7.9-13.59,14.3-30.36,14.3Z"/><path class="cls-1" d="M191.07,210.52c.03,.28,.05,.55,.05,.83v-.83h-.05Z"/></g></svg>