<?xml version="1.0" encoding="utf-8"?>
<!-- Generator: Adobe Illustrator 26.5.0, SVG Export Plug-In . SVG Version: 6.00 Build 0)  -->
<svg version="1.1" id="Lag_1" xmlns="http://www.w3.org/2000/svg" xmlns:xlink="http://www.w3.org/1999/xlink" x="0px" y="0px"
	 viewBox="0 0 70.9 85" style="enable-background:new 0 0 70.9 85;" xml:space="preserve">
<style type="text/css">
	.st0{fill:#7F4612;stroke:#69370E;stroke-width:0.5;stroke-miterlimit:10;}
	.st1{opacity:0.82;fill:#EDACCE;enable-background:new    ;}
	.st2{fill:#7F4612;stroke:#69340E;stroke-width:0.5;stroke-miterlimit:10;}
	.st3{fill:#EDACCE;}
	.st4{fill:#1D1D1B;}
	.st5{fill:none;stroke:#1D1D1B;stroke-width:0.5;stroke-miterlimit:10;}
	.st6{fill:#097533;}
	.st7{fill:#EDEDED;}
</style>
<g>
	<g id="Lag_1_00000077322205490966488290000011990915552039921541_">
		<g>
			<path class="st0" d="M18,48.1c-0.3,0.1-0.3,0.2-1.5,1.5c-1.1,1.2-0.8,0.8-2.6,2.6c-0.8,0.9-1.5,1.6-2.8,3.1
				c-1,1.2-1.3,1.4-1.6,1.9c-0.7,1.2-1,2.2-1.1,2.7c-0.1,0.7-0.2,1.2-0.1,1.9c0.1,0.4,0.3,1.4,1.1,2.1c0.2,0.1,1,0.9,2.1,0.8
				c0.8-0.1,1.4-0.5,2-0.9c0.8-0.5,1.1-1,1.3-0.9c0.2,0.1,0.1,0.7,0.1,1.9c0,0.8,0,1.3,0.1,2.5c0.1,0.9,0.1,1.8,0.4,2.9
				c0.2,0.8,0.4,1.5,1,2.8c0.6,1.4,0.9,2.3,1.5,3.4c0.2,0.3,0,0,1.7,2.7c0.7,1.2,1,1.6,1.6,2.1c0.8,0.6,1.5,0.8,1.7,0.9
				c0.5,0.1,0.8,0.1,2.4,0.1c1.6-0.1,2.5-0.1,2.5-0.1c1.9-0.1,2.3-0.1,3-0.3c1.2-0.3,1.6-0.6,1.8-1c0.2-0.3,0.3-0.7,0.3-0.9
				c0-0.3,0.1-0.8-0.3-2.2c-0.3-1.2-0.5-1.4-0.3-1.7c0.3-0.5,1.4-0.5,1.7-0.1c0.1,0.2-0.1,0.4-0.2,1.1c0,0.3,0,0.3,0,1.2
				c0,1.4,0,1.5,0.1,1.8c0,0.1,0.2,0.7,0.8,1.1c0.5,0.4,1,0.4,2.2,0.5c1.6,0.1,2.4,0.2,2.8,0.2c2.4,0.1,3,0,3.2-0.1
				c0.7-0.1,1.3-0.3,2-0.7c0.9-0.6,1.4-1.4,1.8-2.1c0.5-0.9,0.8-1.7,1.2-3.2c0.3-1,0.6-1.9,0.8-3.2c0.1-0.8,0.4-2.3,0.3-4.2
				c0-2.1-0.3-3.3,0.1-3.5c0.2-0.1,0.5,0.3,1.3,0.7c0.8,0.4,1.5,0.4,1.8,0.4c0.8,0.1,1.6,0.1,2.4-0.3c1-0.6,1.2-1.7,1.3-2.2
				c0.2-1.1-0.1-2.1-0.4-3c-0.4-1.2-1-1.9-1.8-3.2c-0.7-1-1.3-1.7-2-2.5c-1.3-1.5-1.3-1.3-1.9-2.2c-1.3-1.8-1.3-2.4-2.2-2.8
				c-1-0.5-2.1-0.1-2.7,0.1c-3.1,0.9-5.9,1-9.6,1.1c-1.5,0-3.5-0.2-7.4-0.6c-2.8-0.3-4.3-0.5-5.1-0.8C20.6,48.7,19.4,47.5,18,48.1
				L18,48.1z"/>
			<ellipse class="st1" cx="33.2" cy="60.2" rx="10.9" ry="12.3"/>
			<path class="st2" d="M9.7,19.3c-0.2-0.5-1-0.3-2.4-0.8C6,18,5.1,17.1,4.7,16.7c-1.2-1.3-1.6-2.6-1.8-3.1
				c-0.5-1.8-0.2-3.2-0.1-3.9C3,9.3,3.2,8.1,4.1,6.8c0.8-1.3,1.8-2,2.3-2.4c1.2-0.8,2.2-1.1,2.8-1.3C9.7,3,10.7,2.7,12,2.7
				c1.7,0,3,0.5,3.4,0.7C16,3.7,16.8,4,17.5,4.7c1.5,1.5,1.3,3,2.4,3.2c0.2,0.1,0.7-0.1,1.7-0.4c1-0.3,1.2-0.5,2.2-0.9
				c0.6-0.2,1.4-0.5,2.5-0.8c0.4-0.1,0.9-0.2,2-0.3c1.3-0.2,2.7-0.3,4.6-0.3c1.8,0,3.1,0.2,4,0.3C38.6,5.6,40,6,40.6,6.1
				c1.3,0.3,2.3,0.6,3.2,1c1,0.3,1.8,0.6,2.8,1.1c1,0.5,1.6,0.7,2.1,1.1c1.4,0.9,1.9,1.9,2.5,1.7c0.2-0.1,0.2-0.3,0.5-0.8
				c0.4-0.7,0.9-1.1,1.5-1.5c1.1-0.9,2.3-1.1,3.2-1.3C57,7.1,58.1,6.9,59.6,7c0.9,0.1,2.1,0.1,3.5,0.8c1.2,0.6,2,1.3,2.6,1.8
				c0.6,0.6,1.2,1.1,1.7,2c1,1.8,0.9,3.6,0.9,4.1c0,0.6-0.2,1.7-0.8,2.9c-0.8,1.5-1.8,2.4-2.4,2.8c-0.6,0.5-1.1,0.9-2,1.2
				c-2,0.7-3.5,0-3.9,0.8c-0.1,0.2-0.1,0.3,0.1,1c0.2,0.9,0.3,1.8,0.5,2.6c0.3,1.1,0.3,2,0.3,3.8c0,1.5,0,2.6-0.1,3.5
				c-0.1,1.4-0.1,2.1-0.3,3.2c-0.3,1.4-0.7,2.4-0.9,3c-0.3,0.8-0.7,1.7-1.3,2.8c-0.2,0.3-0.8,1.3-1.9,2.5c-0.5,0.5-1.3,1.3-2.5,2.1
				c-1.1,0.7-2,1-3,1.4c-1.5,0.6-2.7,0.8-3.2,1c-0.5,0.1-0.8,0.2-4.1,0.5c-2.6,0.3-2.9,0.3-3.5,0.3c-1,0-1.8,0-3.1,0
				c-1,0-2.6-0.1-4.6-0.3c-1.4-0.1-2.5-0.3-3.5-0.4c-1.9-0.3-3.2-0.5-4.9-0.9c-1.3-0.3-2.2-0.6-3.4-1c-1.8-0.6-2.7-0.8-3.7-1.3
				c-1.3-0.7-2.2-1.3-2.8-1.8c-0.6-0.5-1.6-1.2-2.6-2.4c-0.4-0.5-1.2-1.4-1.9-2.7c-0.4-0.7-1.1-2.1-1.4-4c-0.2-1.4-0.2-2.5-0.2-3.8
				c0-1.4,0.2-2.5,0.3-3.6c0.1-0.8,0.2-1.5,0.4-2.5C8,25.3,8.1,25.2,8.4,24c0.3-1.5,0.2-1.5,0.4-2.4C9.3,20.1,10,19.8,9.7,19.3
				L9.7,19.3z"/>
			<ellipse transform="matrix(0.8022 -0.5971 0.5971 0.8022 -4.1725 8.9926)" class="st3" cx="11.5" cy="10.8" rx="6" ry="3.9"/>
			<ellipse transform="matrix(0.7683 -0.6401 0.6401 0.7683 4.0125 41.2316)" class="st3" cx="59" cy="15.1" rx="3.9" ry="6"/>
			
				<ellipse transform="matrix(7.515264e-02 -0.9972 0.9972 7.515264e-02 -7.0573 68.066)" class="st3" cx="33.2" cy="37.8" rx="8.3" ry="11.6"/>
			<path class="st4" d="M37.1,35.5c0,1.4-1.7,2.6-3.9,2.6s-3.9-1.2-3.9-2.6s1.7-2.6,3.9-2.6S37.1,34.1,37.1,35.5z"/>
			<path class="st5" d="M33.2,37.4c0,0.2,0,0.4,0,0.7c0,0.4,0.1,0.7,0.2,1c0.1,0.4,0.1,0.6,0.2,0.8c0.1,0.3,0.2,0.4,0.3,0.8
				C34,40.9,33.9,41,34,41c0.3,0.2,0.9,0,1.5-0.2c0.4-0.1,0.7-0.2,0.9-0.3c0.2-0.1,0.6-0.2,1-0.5c0.4-0.2,0.6-0.3,0.8-0.5
				c0.2-0.2,0.3-0.6,0.4-0.6c0,0,0,0,0,0c0,0,0.1,0,0.2,0.1c0,0,0,0,0.1,0c0.1,0.1,0.3,0.3,0.3,0.4c-0.1,0.1-1.3-0.8-1.3-0.9
				c0,0,0.3,0.1,1,0.5"/>
			<path class="st5" d="M30.3,40.3c0.5,0.2,1,0.3,1.4,0.4c0.8,0.2,1.1,0.3,1.4,0.3c0.3,0,1,0,1.2,0"/>
			<g>
				<circle class="st6" cx="45.3" cy="23.6" r="6.9"/>
				<circle class="st4" cx="45.1" cy="24.2" r="5.2"/>
				<circle class="st7" cx="44" cy="25.8" r="2.2"/>
				<circle class="st7" cx="47.2" cy="22.4" r="1.2"/>
			</g>
			<g>
				<circle class="st6" cx="23" cy="22.1" r="6.9"/>
				<circle class="st4" cx="22.8" cy="22.6" r="5.2"/>
				<circle class="st7" cx="21.7" cy="24.3" r="2.2"/>
				<circle class="st7" cx="24.9" cy="20.8" r="1.2"/>
			</g>
		</g>
	</g>
</g>
</svg>
